<svg xmlns="http://www.w3.org/2000/svg" xmlns:xlink="http://www.w3.org/1999/xlink" width="200" zoomAndPan="magnify" viewBox="0 0 150 36.000001" height="48" preserveAspectRatio="xMidYMid meet" version="1.0"><defs><g/></defs><g fill="#800000" fill-opacity="1"><g transform="translate(11.614927, 22.7253)"><g><path d="M 6.09375 -12.515625 C 5.707031 -12.515625 5.378906 -12.394531 5.109375 -12.15625 C 4.847656 -11.914062 4.71875 -11.628906 4.71875 -11.296875 C 4.71875 -10.859375 4.898438 -10.503906 5.265625 -10.234375 C 5.628906 -9.972656 6.296875 -9.632812 7.265625 -9.21875 C 8.398438 -8.726562 9.273438 -8.25 9.890625 -7.78125 C 10.503906 -7.320312 10.929688 -6.832031 11.171875 -6.3125 C 11.421875 -5.800781 11.546875 -5.1875 11.546875 -4.46875 C 11.546875 -2.96875 11.0625 -1.796875 10.09375 -0.953125 C 9.132812 -0.117188 7.8125 0.296875 6.125 0.296875 C 4.40625 0.296875 3.039062 -0.144531 2.03125 -1.03125 C 1.03125 -1.914062 0.53125 -3.175781 0.53125 -4.8125 L 0.53125 -5.140625 L 4.46875 -5.140625 C 4.488281 -4.492188 4.644531 -3.976562 4.9375 -3.59375 C 5.226562 -3.21875 5.617188 -3.03125 6.109375 -3.03125 C 6.515625 -3.03125 6.863281 -3.171875 7.15625 -3.453125 C 7.457031 -3.742188 7.609375 -4.097656 7.609375 -4.515625 C 7.609375 -5.003906 7.367188 -5.40625 6.890625 -5.71875 C 6.421875 -6.03125 5.753906 -6.359375 4.890625 -6.703125 C 4.835938 -6.722656 4.769531 -6.742188 4.6875 -6.765625 C 4.613281 -6.785156 4.539062 -6.816406 4.46875 -6.859375 C 3.195312 -7.378906 2.265625 -7.988281 1.671875 -8.6875 C 1.078125 -9.394531 0.78125 -10.25 0.78125 -11.25 C 0.78125 -12.101562 1.023438 -12.878906 1.515625 -13.578125 C 2.015625 -14.285156 2.679688 -14.835938 3.515625 -15.234375 C 4.347656 -15.628906 5.238281 -15.828125 6.1875 -15.828125 C 7.1875 -15.828125 8.109375 -15.613281 8.953125 -15.1875 C 9.785156 -14.75 10.398438 -14.195312 10.796875 -13.53125 C 11.203125 -12.863281 11.410156 -12.019531 11.421875 -11 L 7.5 -11 C 7.414062 -11.550781 7.257812 -11.941406 7.03125 -12.171875 C 6.8125 -12.398438 6.5 -12.515625 6.09375 -12.515625 Z M 6.09375 -12.515625 "/></g></g></g><g fill="#2196f3" fill-opacity="1"><g transform="translate(23.229008, 22.7253)"><g><path d="M 6.796875 -2.5625 C 7.265625 -2.5625 7.660156 -2.648438 7.984375 -2.828125 C 8.316406 -3.003906 8.628906 -3.28125 8.921875 -3.65625 L 12.5 -3.65625 C 11.9375 -2.382812 11.15625 -1.394531 10.15625 -0.6875 C 9.15625 0.0195312 8.035156 0.375 6.796875 0.375 C 5.691406 0.375 4.664062 0.101562 3.71875 -0.4375 C 2.78125 -0.988281 2.03125 -1.734375 1.46875 -2.671875 C 0.90625 -3.617188 0.625 -4.660156 0.625 -5.796875 C 0.625 -6.898438 0.894531 -7.929688 1.4375 -8.890625 C 1.988281 -9.847656 2.726562 -10.613281 3.65625 -11.1875 C 4.59375 -11.757812 5.617188 -12.046875 6.734375 -12.046875 C 7.890625 -12.046875 8.9375 -11.765625 9.875 -11.203125 C 10.8125 -10.648438 11.546875 -9.890625 12.078125 -8.921875 C 12.617188 -7.953125 12.890625 -6.875 12.890625 -5.6875 C 12.890625 -5.351562 12.863281 -5.046875 12.8125 -4.765625 L 4.078125 -4.765625 C 4.171875 -4.109375 4.46875 -3.578125 4.96875 -3.171875 C 5.476562 -2.765625 6.085938 -2.5625 6.796875 -2.5625 Z M 6.734375 -9.109375 C 6.097656 -9.109375 5.535156 -8.929688 5.046875 -8.578125 C 4.566406 -8.222656 4.253906 -7.738281 4.109375 -7.125 L 9.40625 -7.125 C 9.269531 -7.71875 8.957031 -8.195312 8.46875 -8.5625 C 7.988281 -8.925781 7.410156 -9.109375 6.734375 -9.109375 Z M 6.734375 -9.109375 "/></g></g></g><g fill="#2196f3" fill-opacity="1"><g transform="translate(36.370934, 22.7253)"><g><path d="M 6.890625 -8.796875 C 6.109375 -8.796875 5.460938 -8.507812 4.953125 -7.9375 C 4.453125 -7.375 4.203125 -6.675781 4.203125 -5.84375 C 4.203125 -4.988281 4.457031 -4.28125 4.96875 -3.71875 C 5.488281 -3.15625 6.15625 -2.875 6.96875 -2.875 C 8.101562 -2.875 8.941406 -3.394531 9.484375 -4.4375 L 13.046875 -4.4375 C 12.816406 -3.46875 12.40625 -2.617188 11.8125 -1.890625 C 11.21875 -1.171875 10.492188 -0.613281 9.640625 -0.21875 C 8.785156 0.175781 7.859375 0.375 6.859375 0.375 C 5.734375 0.375 4.703125 0.0976562 3.765625 -0.453125 C 2.828125 -1.015625 2.078125 -1.769531 1.515625 -2.71875 C 0.960938 -3.675781 0.6875 -4.722656 0.6875 -5.859375 C 0.6875 -6.992188 0.957031 -8.035156 1.5 -8.984375 C 2.050781 -9.941406 2.796875 -10.691406 3.734375 -11.234375 C 4.671875 -11.773438 5.691406 -12.046875 6.796875 -12.046875 C 7.804688 -12.046875 8.742188 -11.84375 9.609375 -11.4375 C 10.484375 -11.039062 11.21875 -10.472656 11.8125 -9.734375 C 12.40625 -8.992188 12.804688 -8.132812 13.015625 -7.15625 L 9.484375 -7.15625 C 8.984375 -8.25 8.117188 -8.796875 6.890625 -8.796875 Z M 6.890625 -8.796875 "/></g></g></g><g fill="#2196f3" fill-opacity="1"><g transform="translate(49.638815, 22.7253)"><g><path d="M 8.71875 -1.234375 C 8.46875 -0.691406 8.09375 -0.285156 7.59375 -0.015625 C 7.101562 0.242188 6.476562 0.375 5.71875 0.375 C 4.394531 0.375 3.3125 -0.0234375 2.46875 -0.828125 C 1.632812 -1.628906 1.21875 -2.820312 1.21875 -4.40625 L 1.21875 -11.65625 L 4.703125 -11.65625 L 4.703125 -5.125 C 4.703125 -4.351562 4.847656 -3.785156 5.140625 -3.421875 C 5.441406 -3.054688 5.921875 -2.875 6.578125 -2.875 C 7.210938 -2.875 7.703125 -3.078125 8.046875 -3.484375 C 8.390625 -3.890625 8.5625 -4.457031 8.5625 -5.1875 L 8.5625 -11.65625 L 12.046875 -11.65625 L 12.046875 0 L 8.75 0 L 8.75 -1.234375 Z M 8.71875 -1.234375 "/></g></g></g><g fill="#2196f3" fill-opacity="1"><g transform="translate(62.528795, 22.7253)"><g><path d="M 4.515625 -11.65625 L 4.515625 -10.421875 L 4.5625 -10.421875 C 4.851562 -11.015625 5.234375 -11.429688 5.703125 -11.671875 C 6.179688 -11.921875 6.769531 -12.046875 7.46875 -12.046875 L 7.46875 -8.546875 C 6.476562 -8.535156 5.769531 -8.351562 5.34375 -8 C 4.925781 -7.644531 4.71875 -7.117188 4.71875 -6.421875 L 4.71875 0 L 1.234375 0 L 1.234375 -11.65625 Z M 4.515625 -11.65625 "/></g></g></g><g fill="#2196f3" fill-opacity="1"><g transform="translate(69.72938, 22.7253)"><g><path d="M 6.796875 -2.5625 C 7.265625 -2.5625 7.660156 -2.648438 7.984375 -2.828125 C 8.316406 -3.003906 8.628906 -3.28125 8.921875 -3.65625 L 12.5 -3.65625 C 11.9375 -2.382812 11.15625 -1.394531 10.15625 -0.6875 C 9.15625 0.0195312 8.035156 0.375 6.796875 0.375 C 5.691406 0.375 4.664062 0.101562 3.71875 -0.4375 C 2.78125 -0.988281 2.03125 -1.734375 1.46875 -2.671875 C 0.90625 -3.617188 0.625 -4.660156 0.625 -5.796875 C 0.625 -6.898438 0.894531 -7.929688 1.4375 -8.890625 C 1.988281 -9.847656 2.726562 -10.613281 3.65625 -11.1875 C 4.59375 -11.757812 5.617188 -12.046875 6.734375 -12.046875 C 7.890625 -12.046875 8.9375 -11.765625 9.875 -11.203125 C 10.8125 -10.648438 11.546875 -9.890625 12.078125 -8.921875 C 12.617188 -7.953125 12.890625 -6.875 12.890625 -5.6875 C 12.890625 -5.351562 12.863281 -5.046875 12.8125 -4.765625 L 4.078125 -4.765625 C 4.171875 -4.109375 4.46875 -3.578125 4.96875 -3.171875 C 5.476562 -2.765625 6.085938 -2.5625 6.796875 -2.5625 Z M 6.734375 -9.109375 C 6.097656 -9.109375 5.535156 -8.929688 5.046875 -8.578125 C 4.566406 -8.222656 4.253906 -7.738281 4.109375 -7.125 L 9.40625 -7.125 C 9.269531 -7.71875 8.957031 -8.195312 8.46875 -8.5625 C 7.988281 -8.925781 7.410156 -9.109375 6.734375 -9.109375 Z M 6.734375 -9.109375 "/></g></g></g><g fill="#800000" fill-opacity="1"><g transform="translate(82.877505, 22.7253)"><g><path d="M 5.375 -6.21875 L 5.375 0 L 1.40625 0 L 1.40625 -15.546875 L 5.375 -15.546875 L 5.375 -9.703125 L 10.453125 -9.703125 L 10.453125 -15.546875 L 14.421875 -15.546875 L 14.421875 0 L 10.453125 0 L 10.453125 -6.21875 Z M 5.375 -6.21875 "/></g></g></g><g fill="#2196f3" fill-opacity="1"><g transform="translate(98.30384, 22.7253)"><g><path d="M 9.96875 -1.265625 C 9.71875 -0.753906 9.273438 -0.347656 8.640625 -0.046875 C 8.015625 0.253906 7.316406 0.40625 6.546875 0.40625 C 5.429688 0.40625 4.425781 0.132812 3.53125 -0.40625 C 2.644531 -0.957031 1.953125 -1.707031 1.453125 -2.65625 C 0.960938 -3.613281 0.71875 -4.675781 0.71875 -5.84375 C 0.71875 -6.96875 0.972656 -8.003906 1.484375 -8.953125 C 1.992188 -9.910156 2.691406 -10.664062 3.578125 -11.21875 C 4.460938 -11.769531 5.453125 -12.046875 6.546875 -12.046875 C 7.273438 -12.046875 7.945312 -11.898438 8.5625 -11.609375 C 9.175781 -11.328125 9.644531 -10.929688 9.96875 -10.421875 L 10.015625 -10.421875 L 10.015625 -11.65625 L 13.5 -11.65625 L 13.5 0 L 10.015625 0 L 10.015625 -1.265625 Z M 10.015625 -5.84375 C 10.015625 -6.375 9.878906 -6.863281 9.609375 -7.3125 C 9.347656 -7.769531 8.988281 -8.128906 8.53125 -8.390625 C 8.082031 -8.660156 7.59375 -8.796875 7.0625 -8.796875 C 6.539062 -8.796875 6.054688 -8.660156 5.609375 -8.390625 C 5.171875 -8.128906 4.828125 -7.765625 4.578125 -7.296875 C 4.328125 -6.835938 4.203125 -6.335938 4.203125 -5.796875 C 4.203125 -5.265625 4.332031 -4.773438 4.59375 -4.328125 C 4.851562 -3.878906 5.203125 -3.519531 5.640625 -3.25 C 6.078125 -2.988281 6.5625 -2.859375 7.09375 -2.859375 C 7.625 -2.859375 8.113281 -2.988281 8.5625 -3.25 C 9.007812 -3.519531 9.363281 -3.878906 9.625 -4.328125 C 9.882812 -4.785156 10.015625 -5.289062 10.015625 -5.84375 Z M 10.015625 -5.84375 "/></g></g></g><g fill="#2196f3" fill-opacity="1"><g transform="translate(112.663416, 22.7253)"><g><path d="M 6.890625 -8.796875 C 6.109375 -8.796875 5.460938 -8.507812 4.953125 -7.9375 C 4.453125 -7.375 4.203125 -6.675781 4.203125 -5.84375 C 4.203125 -4.988281 4.457031 -4.28125 4.96875 -3.71875 C 5.488281 -3.15625 6.15625 -2.875 6.96875 -2.875 C 8.101562 -2.875 8.941406 -3.394531 9.484375 -4.4375 L 13.046875 -4.4375 C 12.816406 -3.46875 12.40625 -2.617188 11.8125 -1.890625 C 11.21875 -1.171875 10.492188 -0.613281 9.640625 -0.21875 C 8.785156 0.175781 7.859375 0.375 6.859375 0.375 C 5.734375 0.375 4.703125 0.0976562 3.765625 -0.453125 C 2.828125 -1.015625 2.078125 -1.769531 1.515625 -2.71875 C 0.960938 -3.675781 0.6875 -4.722656 0.6875 -5.859375 C 0.6875 -6.992188 0.957031 -8.035156 1.5 -8.984375 C 2.050781 -9.941406 2.796875 -10.691406 3.734375 -11.234375 C 4.671875 -11.773438 5.691406 -12.046875 6.796875 -12.046875 C 7.804688 -12.046875 8.742188 -11.84375 9.609375 -11.4375 C 10.484375 -11.039062 11.21875 -10.472656 11.8125 -9.734375 C 12.40625 -8.992188 12.804688 -8.132812 13.015625 -7.15625 L 9.484375 -7.15625 C 8.984375 -8.25 8.117188 -8.796875 6.890625 -8.796875 Z M 6.890625 -8.796875 "/></g></g></g><g fill="#2196f3" fill-opacity="1"><g transform="translate(125.931297, 22.7253)"><g><path d="M 4.875 -5.609375 L 4.875 0 L 1.390625 0 L 1.390625 -15.546875 L 4.875 -15.546875 L 4.875 -7.4375 L 4.90625 -7.4375 L 8.140625 -11.65625 L 12.28125 -11.65625 L 7.890625 -6.53125 L 12.15625 0 L 8.21875 0 L 4.90625 -5.609375 Z M 4.875 -5.609375 "/></g></g></g><g fill="#000000" fill-opacity="1"><g transform="translate(40.403654, 29.935137)"><g><path d="M 1.515625 0 L 0.625 0 L 0.625 -4.859375 L 1.890625 -4.859375 L 3.125 -1.28125 L 3.1875 -1.28125 L 4.421875 -4.859375 L 5.640625 -4.859375 L 5.640625 0 L 4.734375 0 L 4.734375 -3.21875 L 4.640625 -3.234375 L 3.515625 0 L 2.71875 0 L 1.59375 -3.234375 L 1.515625 -3.21875 Z M 1.515625 0 "/></g></g><g transform="translate(46.679045, 29.935137)"><g><path d="M 1.4375 0.0625 C 1.195312 0.0625 0.988281 0.0195312 0.8125 -0.0625 C 0.644531 -0.144531 0.515625 -0.269531 0.421875 -0.4375 C 0.328125 -0.601562 0.28125 -0.804688 0.28125 -1.046875 C 0.28125 -1.265625 0.328125 -1.445312 0.421875 -1.59375 C 0.515625 -1.738281 0.65625 -1.859375 0.84375 -1.953125 C 1.039062 -2.046875 1.296875 -2.117188 1.609375 -2.171875 C 1.835938 -2.203125 2.003906 -2.238281 2.109375 -2.28125 C 2.222656 -2.332031 2.300781 -2.382812 2.34375 -2.4375 C 2.382812 -2.488281 2.40625 -2.554688 2.40625 -2.640625 C 2.40625 -2.753906 2.363281 -2.84375 2.28125 -2.90625 C 2.195312 -2.96875 2.0625 -3 1.875 -3 C 1.664062 -3 1.46875 -2.953125 1.28125 -2.859375 C 1.101562 -2.765625 0.945312 -2.644531 0.8125 -2.5 L 0.75 -2.5 L 0.359375 -3.078125 C 0.546875 -3.285156 0.773438 -3.445312 1.046875 -3.5625 C 1.316406 -3.675781 1.609375 -3.734375 1.921875 -3.734375 C 2.410156 -3.734375 2.757812 -3.628906 2.96875 -3.421875 C 3.1875 -3.222656 3.296875 -2.929688 3.296875 -2.546875 L 3.296875 -0.953125 C 3.296875 -0.796875 3.367188 -0.71875 3.515625 -0.71875 C 3.578125 -0.71875 3.632812 -0.722656 3.6875 -0.734375 L 3.734375 -0.734375 L 3.796875 -0.09375 C 3.742188 -0.0507812 3.671875 -0.0195312 3.578125 0 C 3.492188 0.0195312 3.394531 0.03125 3.28125 0.03125 C 3.0625 0.03125 2.890625 -0.0078125 2.765625 -0.09375 C 2.640625 -0.175781 2.550781 -0.3125 2.5 -0.5 L 2.4375 -0.5 C 2.257812 -0.125 1.925781 0.0625 1.4375 0.0625 Z M 1.71875 -0.625 C 1.9375 -0.625 2.109375 -0.691406 2.234375 -0.828125 C 2.359375 -0.972656 2.421875 -1.175781 2.421875 -1.4375 L 2.421875 -1.796875 L 2.359375 -1.8125 C 2.304688 -1.769531 2.234375 -1.734375 2.140625 -1.703125 C 2.054688 -1.671875 1.925781 -1.640625 1.75 -1.609375 C 1.550781 -1.578125 1.40625 -1.519531 1.3125 -1.4375 C 1.226562 -1.363281 1.1875 -1.25 1.1875 -1.09375 C 1.1875 -0.9375 1.234375 -0.816406 1.328125 -0.734375 C 1.421875 -0.660156 1.550781 -0.625 1.71875 -0.625 Z M 1.71875 -0.625 "/></g></g><g transform="translate(50.546708, 29.935137)"><g><path d="M 0.53125 0 L 0.53125 -5.140625 L 1.453125 -5.140625 L 1.453125 -2.28125 L 1.546875 -2.28125 L 2.59375 -3.671875 L 3.53125 -3.671875 L 3.53125 -3.59375 L 2.28125 -1.984375 L 3.671875 -0.078125 L 3.671875 0 L 2.703125 0 L 1.546875 -1.546875 L 1.453125 -1.546875 L 1.453125 0 Z M 0.53125 0 "/></g></g><g transform="translate(54.228137, 29.935137)"><g><path d="M 0.984375 -4.109375 C 0.816406 -4.109375 0.679688 -4.15625 0.578125 -4.25 C 0.472656 -4.351562 0.421875 -4.488281 0.421875 -4.65625 C 0.421875 -4.8125 0.472656 -4.9375 0.578125 -5.03125 C 0.679688 -5.132812 0.816406 -5.1875 0.984375 -5.1875 C 1.097656 -5.1875 1.195312 -5.160156 1.28125 -5.109375 C 1.363281 -5.066406 1.429688 -5.003906 1.484375 -4.921875 C 1.535156 -4.847656 1.5625 -4.757812 1.5625 -4.65625 C 1.5625 -4.550781 1.535156 -4.457031 1.484375 -4.375 C 1.429688 -4.289062 1.363281 -4.222656 1.28125 -4.171875 C 1.195312 -4.128906 1.097656 -4.109375 0.984375 -4.109375 Z M 0.53125 0 L 0.53125 -3.671875 L 1.453125 -3.671875 L 1.453125 0 Z M 0.53125 0 "/></g></g><g transform="translate(56.203538, 29.935137)"><g><path d="M 0.53125 0 L 0.53125 -3.671875 L 1.40625 -3.671875 L 1.40625 -3.125 L 1.484375 -3.109375 C 1.710938 -3.523438 2.082031 -3.734375 2.59375 -3.734375 C 3.019531 -3.734375 3.332031 -3.617188 3.53125 -3.390625 C 3.726562 -3.160156 3.828125 -2.828125 3.828125 -2.390625 L 3.828125 0 L 2.90625 0 L 2.90625 -2.265625 C 2.90625 -2.515625 2.851562 -2.691406 2.75 -2.796875 C 2.65625 -2.898438 2.5 -2.953125 2.28125 -2.953125 C 2.019531 -2.953125 1.816406 -2.867188 1.671875 -2.703125 C 1.523438 -2.535156 1.453125 -2.269531 1.453125 -1.90625 L 1.453125 0 Z M 0.53125 0 "/></g></g><g transform="translate(60.500202, 29.935137)"><g><path d="M 1.90625 1.5625 C 1.300781 1.5625 0.851562 1.472656 0.5625 1.296875 C 0.269531 1.117188 0.125 0.867188 0.125 0.546875 C 0.125 0.359375 0.1875 0.203125 0.3125 0.078125 C 0.4375 -0.046875 0.613281 -0.128906 0.84375 -0.171875 L 0.84375 -0.25 C 0.71875 -0.320312 0.628906 -0.398438 0.578125 -0.484375 C 0.523438 -0.578125 0.5 -0.6875 0.5 -0.8125 C 0.5 -1.101562 0.691406 -1.300781 1.078125 -1.40625 L 1.078125 -1.484375 C 0.878906 -1.597656 0.726562 -1.738281 0.625 -1.90625 C 0.519531 -2.070312 0.46875 -2.273438 0.46875 -2.515625 C 0.46875 -2.753906 0.523438 -2.960938 0.640625 -3.140625 C 0.753906 -3.328125 0.914062 -3.472656 1.125 -3.578125 C 1.34375 -3.679688 1.601562 -3.734375 1.90625 -3.734375 C 2.21875 -3.734375 2.460938 -3.679688 2.640625 -3.578125 C 2.753906 -3.742188 2.820312 -3.929688 2.84375 -4.140625 L 2.90625 -4.1875 L 3.578125 -4.03125 C 3.554688 -3.851562 3.503906 -3.703125 3.421875 -3.578125 C 3.335938 -3.460938 3.207031 -3.359375 3.03125 -3.265625 L 3.03125 -3.203125 C 3.238281 -3.015625 3.34375 -2.757812 3.34375 -2.4375 C 3.34375 -2.207031 3.285156 -2.003906 3.171875 -1.828125 C 3.054688 -1.648438 2.890625 -1.507812 2.671875 -1.40625 C 2.460938 -1.300781 2.207031 -1.25 1.90625 -1.25 L 1.765625 -1.25 C 1.679688 -1.25 1.625 -1.25 1.59375 -1.25 C 1.5 -1.25 1.425781 -1.226562 1.375 -1.1875 C 1.332031 -1.144531 1.3125 -1.085938 1.3125 -1.015625 C 1.3125 -0.929688 1.34375 -0.867188 1.40625 -0.828125 C 1.46875 -0.785156 1.5625 -0.765625 1.6875 -0.765625 L 2.5 -0.734375 C 3.3125 -0.703125 3.71875 -0.351562 3.71875 0.3125 C 3.71875 0.550781 3.65625 0.765625 3.53125 0.953125 C 3.414062 1.140625 3.222656 1.285156 2.953125 1.390625 C 2.679688 1.503906 2.332031 1.5625 1.90625 1.5625 Z M 1.90625 -1.890625 C 2.082031 -1.890625 2.222656 -1.941406 2.328125 -2.046875 C 2.429688 -2.148438 2.484375 -2.296875 2.484375 -2.484375 C 2.484375 -2.679688 2.429688 -2.832031 2.328125 -2.9375 C 2.222656 -3.039062 2.082031 -3.09375 1.90625 -3.09375 C 1.726562 -3.09375 1.585938 -3.039062 1.484375 -2.9375 C 1.390625 -2.832031 1.34375 -2.679688 1.34375 -2.484375 C 1.34375 -2.296875 1.390625 -2.148438 1.484375 -2.046875 C 1.585938 -1.941406 1.726562 -1.890625 1.90625 -1.890625 Z M 1.90625 0.890625 C 2.21875 0.890625 2.441406 0.84375 2.578125 0.75 C 2.722656 0.664062 2.796875 0.550781 2.796875 0.40625 C 2.796875 0.289062 2.757812 0.207031 2.6875 0.15625 C 2.613281 0.101562 2.5 0.0703125 2.34375 0.0625 L 1.625 0.03125 C 1.59375 0.03125 1.566406 0.03125 1.546875 0.03125 C 1.523438 0.03125 1.503906 0.03125 1.484375 0.03125 C 1.328125 0.03125 1.207031 0.0625 1.125 0.125 C 1.050781 0.1875 1.015625 0.28125 1.015625 0.40625 C 1.015625 0.5625 1.085938 0.679688 1.234375 0.765625 C 1.378906 0.847656 1.601562 0.890625 1.90625 0.890625 Z M 1.90625 0.890625 "/></g></g><g transform="translate(64.314655, 29.935137)"><g/></g><g transform="translate(65.920916, 29.935137)"><g><path d="M 1.59375 0 L 0.625 0 L 0.625 -4.859375 L 1.59375 -4.859375 Z M 1.59375 0 "/></g></g><g transform="translate(68.149062, 29.935137)"><g><path d="M 0.53125 0 L 0.53125 -3.671875 L 1.40625 -3.671875 L 1.40625 -3.125 L 1.484375 -3.109375 C 1.710938 -3.523438 2.082031 -3.734375 2.59375 -3.734375 C 3.019531 -3.734375 3.332031 -3.617188 3.53125 -3.390625 C 3.726562 -3.160156 3.828125 -2.828125 3.828125 -2.390625 L 3.828125 0 L 2.90625 0 L 2.90625 -2.265625 C 2.90625 -2.515625 2.851562 -2.691406 2.75 -2.796875 C 2.65625 -2.898438 2.5 -2.953125 2.28125 -2.953125 C 2.019531 -2.953125 1.816406 -2.867188 1.671875 -2.703125 C 1.523438 -2.535156 1.453125 -2.269531 1.453125 -1.90625 L 1.453125 0 Z M 0.53125 0 "/></g></g><g transform="translate(72.445726, 29.935137)"><g><path d="M 2.53125 -0.875 L 2.765625 -0.1875 C 2.671875 -0.101562 2.546875 -0.0390625 2.390625 0 C 2.242188 0.0390625 2.070312 0.0625 1.875 0.0625 C 1.476562 0.0625 1.175781 -0.0390625 0.96875 -0.25 C 0.769531 -0.46875 0.671875 -0.785156 0.671875 -1.203125 L 0.671875 -2.9375 L 0.109375 -2.9375 L 0.109375 -3.671875 L 0.671875 -3.671875 L 0.671875 -4.390625 L 1.59375 -4.53125 L 1.59375 -3.671875 L 2.625 -3.671875 L 2.625 -2.9375 L 1.59375 -2.9375 L 1.59375 -1.265625 C 1.59375 -1.078125 1.628906 -0.941406 1.703125 -0.859375 C 1.773438 -0.773438 1.882812 -0.734375 2.03125 -0.734375 C 2.195312 -0.734375 2.34375 -0.78125 2.46875 -0.875 Z M 2.53125 -0.875 "/></g></g><g transform="translate(75.295757, 29.935137)"><g><path d="M 3.625 -1.625 L 1.265625 -1.625 C 1.296875 -1.300781 1.382812 -1.066406 1.53125 -0.921875 C 1.6875 -0.785156 1.898438 -0.71875 2.171875 -0.71875 C 2.378906 -0.71875 2.550781 -0.753906 2.6875 -0.828125 C 2.820312 -0.910156 2.925781 -1.03125 3 -1.1875 L 3.078125 -1.1875 L 3.6875 -0.796875 C 3.5625 -0.535156 3.378906 -0.328125 3.140625 -0.171875 C 2.898438 -0.015625 2.578125 0.0625 2.171875 0.0625 C 1.796875 0.0625 1.46875 -0.00390625 1.1875 -0.140625 C 0.914062 -0.285156 0.703125 -0.5 0.546875 -0.78125 C 0.398438 -1.070312 0.328125 -1.421875 0.328125 -1.828125 C 0.328125 -2.242188 0.40625 -2.59375 0.5625 -2.875 C 0.71875 -3.164062 0.929688 -3.378906 1.203125 -3.515625 C 1.472656 -3.660156 1.773438 -3.734375 2.109375 -3.734375 C 2.628906 -3.734375 3.023438 -3.59375 3.296875 -3.3125 C 3.578125 -3.039062 3.71875 -2.640625 3.71875 -2.109375 C 3.71875 -1.921875 3.710938 -1.773438 3.703125 -1.671875 Z M 2.828125 -2.21875 C 2.828125 -2.5 2.765625 -2.703125 2.640625 -2.828125 C 2.515625 -2.960938 2.335938 -3.03125 2.109375 -3.03125 C 1.640625 -3.03125 1.363281 -2.757812 1.28125 -2.21875 Z M 2.828125 -2.21875 "/></g></g><g transform="translate(79.283141, 29.935137)"><g><path d="M 0.53125 0 L 0.53125 -3.671875 L 1.421875 -3.671875 L 1.421875 -3.125 L 1.5 -3.109375 C 1.582031 -3.316406 1.695312 -3.46875 1.84375 -3.5625 C 1.988281 -3.65625 2.164062 -3.703125 2.375 -3.703125 C 2.582031 -3.703125 2.738281 -3.664062 2.84375 -3.59375 L 2.6875 -2.796875 L 2.625 -2.78125 C 2.5625 -2.8125 2.5 -2.832031 2.4375 -2.84375 C 2.382812 -2.851562 2.316406 -2.859375 2.234375 -2.859375 C 1.984375 -2.859375 1.789062 -2.765625 1.65625 -2.578125 C 1.519531 -2.398438 1.453125 -2.113281 1.453125 -1.71875 L 1.453125 0 Z M 0.53125 0 "/></g></g><g transform="translate(82.159778, 29.935137)"><g><path d="M 0.53125 0 L 0.53125 -3.671875 L 1.40625 -3.671875 L 1.40625 -3.125 L 1.484375 -3.109375 C 1.710938 -3.523438 2.082031 -3.734375 2.59375 -3.734375 C 3.019531 -3.734375 3.332031 -3.617188 3.53125 -3.390625 C 3.726562 -3.160156 3.828125 -2.828125 3.828125 -2.390625 L 3.828125 0 L 2.90625 0 L 2.90625 -2.265625 C 2.90625 -2.515625 2.851562 -2.691406 2.75 -2.796875 C 2.65625 -2.898438 2.5 -2.953125 2.28125 -2.953125 C 2.019531 -2.953125 1.816406 -2.867188 1.671875 -2.703125 C 1.523438 -2.535156 1.453125 -2.269531 1.453125 -1.90625 L 1.453125 0 Z M 0.53125 0 "/></g></g><g transform="translate(86.456442, 29.935137)"><g><path d="M 3.625 -1.625 L 1.265625 -1.625 C 1.296875 -1.300781 1.382812 -1.066406 1.53125 -0.921875 C 1.6875 -0.785156 1.898438 -0.71875 2.171875 -0.71875 C 2.378906 -0.71875 2.550781 -0.753906 2.6875 -0.828125 C 2.820312 -0.910156 2.925781 -1.03125 3 -1.1875 L 3.078125 -1.1875 L 3.6875 -0.796875 C 3.5625 -0.535156 3.378906 -0.328125 3.140625 -0.171875 C 2.898438 -0.015625 2.578125 0.0625 2.171875 0.0625 C 1.796875 0.0625 1.46875 -0.00390625 1.1875 -0.140625 C 0.914062 -0.285156 0.703125 -0.5 0.546875 -0.78125 C 0.398438 -1.070312 0.328125 -1.421875 0.328125 -1.828125 C 0.328125 -2.242188 0.40625 -2.59375 0.5625 -2.875 C 0.71875 -3.164062 0.929688 -3.378906 1.203125 -3.515625 C 1.472656 -3.660156 1.773438 -3.734375 2.109375 -3.734375 C 2.628906 -3.734375 3.023438 -3.59375 3.296875 -3.3125 C 3.578125 -3.039062 3.71875 -2.640625 3.71875 -2.109375 C 3.71875 -1.921875 3.710938 -1.773438 3.703125 -1.671875 Z M 2.828125 -2.21875 C 2.828125 -2.5 2.765625 -2.703125 2.640625 -2.828125 C 2.515625 -2.960938 2.335938 -3.03125 2.109375 -3.03125 C 1.640625 -3.03125 1.363281 -2.757812 1.28125 -2.21875 Z M 2.828125 -2.21875 "/></g></g><g transform="translate(90.443826, 29.935137)"><g><path d="M 2.53125 -0.875 L 2.765625 -0.1875 C 2.671875 -0.101562 2.546875 -0.0390625 2.390625 0 C 2.242188 0.0390625 2.070312 0.0625 1.875 0.0625 C 1.476562 0.0625 1.175781 -0.0390625 0.96875 -0.25 C 0.769531 -0.46875 0.671875 -0.785156 0.671875 -1.203125 L 0.671875 -2.9375 L 0.109375 -2.9375 L 0.109375 -3.671875 L 0.671875 -3.671875 L 0.671875 -4.390625 L 1.59375 -4.53125 L 1.59375 -3.671875 L 2.625 -3.671875 L 2.625 -2.9375 L 1.59375 -2.9375 L 1.59375 -1.265625 C 1.59375 -1.078125 1.628906 -0.941406 1.703125 -0.859375 C 1.773438 -0.773438 1.882812 -0.734375 2.03125 -0.734375 C 2.195312 -0.734375 2.34375 -0.78125 2.46875 -0.875 Z M 2.53125 -0.875 "/></g></g><g transform="translate(93.293857, 29.935137)"><g/></g><g transform="translate(94.900118, 29.935137)"><g><path d="M 2.15625 0.0625 C 1.820312 0.0625 1.519531 0.0234375 1.25 -0.046875 C 0.988281 -0.128906 0.769531 -0.238281 0.59375 -0.375 C 0.425781 -0.507812 0.296875 -0.660156 0.203125 -0.828125 L 0.71875 -1.46875 L 0.8125 -1.46875 C 0.957031 -1.25 1.140625 -1.078125 1.359375 -0.953125 C 1.585938 -0.828125 1.851562 -0.765625 2.15625 -0.765625 C 2.414062 -0.765625 2.609375 -0.816406 2.734375 -0.921875 C 2.867188 -1.035156 2.9375 -1.1875 2.9375 -1.375 C 2.9375 -1.488281 2.914062 -1.582031 2.875 -1.65625 C 2.832031 -1.738281 2.757812 -1.804688 2.65625 -1.859375 C 2.5625 -1.921875 2.429688 -1.96875 2.265625 -2 L 1.640625 -2.15625 C 1.203125 -2.25 0.875 -2.410156 0.65625 -2.640625 C 0.445312 -2.878906 0.34375 -3.179688 0.34375 -3.546875 C 0.34375 -3.828125 0.410156 -4.070312 0.546875 -4.28125 C 0.679688 -4.488281 0.878906 -4.648438 1.140625 -4.765625 C 1.410156 -4.878906 1.726562 -4.9375 2.09375 -4.9375 C 2.46875 -4.9375 2.785156 -4.882812 3.046875 -4.78125 C 3.316406 -4.6875 3.546875 -4.535156 3.734375 -4.328125 L 3.25 -3.671875 L 3.171875 -3.671875 C 3.035156 -3.816406 2.878906 -3.925781 2.703125 -4 C 2.523438 -4.070312 2.320312 -4.109375 2.09375 -4.109375 C 1.832031 -4.109375 1.628906 -4.0625 1.484375 -3.96875 C 1.347656 -3.875 1.28125 -3.742188 1.28125 -3.578125 C 1.28125 -3.429688 1.328125 -3.3125 1.421875 -3.21875 C 1.523438 -3.125 1.691406 -3.050781 1.921875 -3 L 2.5625 -2.875 C 3.039062 -2.769531 3.382812 -2.597656 3.59375 -2.359375 C 3.8125 -2.128906 3.921875 -1.820312 3.921875 -1.4375 C 3.921875 -1.132812 3.851562 -0.867188 3.71875 -0.640625 C 3.582031 -0.410156 3.382812 -0.234375 3.125 -0.109375 C 2.863281 0.00390625 2.539062 0.0625 2.15625 0.0625 Z M 2.15625 0.0625 "/></g></g><g transform="translate(99.07706, 29.935137)"><g><path d="M 1.4375 0.0625 C 1.195312 0.0625 0.988281 0.0195312 0.8125 -0.0625 C 0.644531 -0.144531 0.515625 -0.269531 0.421875 -0.4375 C 0.328125 -0.601562 0.28125 -0.804688 0.28125 -1.046875 C 0.28125 -1.265625 0.328125 -1.445312 0.421875 -1.59375 C 0.515625 -1.738281 0.65625 -1.859375 0.84375 -1.953125 C 1.039062 -2.046875 1.296875 -2.117188 1.609375 -2.171875 C 1.835938 -2.203125 2.003906 -2.238281 2.109375 -2.28125 C 2.222656 -2.332031 2.300781 -2.382812 2.34375 -2.4375 C 2.382812 -2.488281 2.40625 -2.554688 2.40625 -2.640625 C 2.40625 -2.753906 2.363281 -2.84375 2.28125 -2.90625 C 2.195312 -2.96875 2.0625 -3 1.875 -3 C 1.664062 -3 1.46875 -2.953125 1.28125 -2.859375 C 1.101562 -2.765625 0.945312 -2.644531 0.8125 -2.5 L 0.75 -2.5 L 0.359375 -3.078125 C 0.546875 -3.285156 0.773438 -3.445312 1.046875 -3.5625 C 1.316406 -3.675781 1.609375 -3.734375 1.921875 -3.734375 C 2.410156 -3.734375 2.757812 -3.628906 2.96875 -3.421875 C 3.1875 -3.222656 3.296875 -2.929688 3.296875 -2.546875 L 3.296875 -0.953125 C 3.296875 -0.796875 3.367188 -0.71875 3.515625 -0.71875 C 3.578125 -0.71875 3.632812 -0.722656 3.6875 -0.734375 L 3.734375 -0.734375 L 3.796875 -0.09375 C 3.742188 -0.0507812 3.671875 -0.0195312 3.578125 0 C 3.492188 0.0195312 3.394531 0.03125 3.28125 0.03125 C 3.0625 0.03125 2.890625 -0.0078125 2.765625 -0.09375 C 2.640625 -0.175781 2.550781 -0.3125 2.5 -0.5 L 2.4375 -0.5 C 2.257812 -0.125 1.925781 0.0625 1.4375 0.0625 Z M 1.71875 -0.625 C 1.9375 -0.625 2.109375 -0.691406 2.234375 -0.828125 C 2.359375 -0.972656 2.421875 -1.175781 2.421875 -1.4375 L 2.421875 -1.796875 L 2.359375 -1.8125 C 2.304688 -1.769531 2.234375 -1.734375 2.140625 -1.703125 C 2.054688 -1.671875 1.925781 -1.640625 1.75 -1.609375 C 1.550781 -1.578125 1.40625 -1.519531 1.3125 -1.4375 C 1.226562 -1.363281 1.1875 -1.25 1.1875 -1.09375 C 1.1875 -0.9375 1.234375 -0.816406 1.328125 -0.734375 C 1.421875 -0.660156 1.550781 -0.625 1.71875 -0.625 Z M 1.71875 -0.625 "/></g></g><g transform="translate(102.944723, 29.935137)"><g><path d="M 0.640625 0 L 0.640625 -2.9375 L 0.125 -2.9375 L 0.125 -3.671875 L 0.640625 -3.671875 C 0.597656 -3.828125 0.578125 -3.972656 0.578125 -4.109375 C 0.578125 -4.335938 0.628906 -4.535156 0.734375 -4.703125 C 0.847656 -4.867188 1.003906 -4.992188 1.203125 -5.078125 C 1.398438 -5.171875 1.640625 -5.21875 1.921875 -5.21875 C 2.328125 -5.21875 2.628906 -5.144531 2.828125 -5 L 2.609375 -4.328125 L 2.53125 -4.3125 C 2.394531 -4.40625 2.222656 -4.453125 2.015625 -4.453125 C 1.847656 -4.453125 1.722656 -4.410156 1.640625 -4.328125 C 1.554688 -4.253906 1.515625 -4.144531 1.515625 -4 C 1.515625 -3.945312 1.515625 -3.894531 1.515625 -3.84375 C 1.523438 -3.789062 1.539062 -3.734375 1.5625 -3.671875 L 2.609375 -3.671875 L 2.609375 -2.9375 L 1.5625 -2.9375 L 1.5625 0 Z M 0.640625 0 "/></g></g><g transform="translate(105.591894, 29.935137)"><g><path d="M 3.625 -1.625 L 1.265625 -1.625 C 1.296875 -1.300781 1.382812 -1.066406 1.53125 -0.921875 C 1.6875 -0.785156 1.898438 -0.71875 2.171875 -0.71875 C 2.378906 -0.71875 2.550781 -0.753906 2.6875 -0.828125 C 2.820312 -0.910156 2.925781 -1.03125 3 -1.1875 L 3.078125 -1.1875 L 3.6875 -0.796875 C 3.5625 -0.535156 3.378906 -0.328125 3.140625 -0.171875 C 2.898438 -0.015625 2.578125 0.0625 2.171875 0.0625 C 1.796875 0.0625 1.46875 -0.00390625 1.1875 -0.140625 C 0.914062 -0.285156 0.703125 -0.5 0.546875 -0.78125 C 0.398438 -1.070312 0.328125 -1.421875 0.328125 -1.828125 C 0.328125 -2.242188 0.40625 -2.59375 0.5625 -2.875 C 0.71875 -3.164062 0.929688 -3.378906 1.203125 -3.515625 C 1.472656 -3.660156 1.773438 -3.734375 2.109375 -3.734375 C 2.628906 -3.734375 3.023438 -3.59375 3.296875 -3.3125 C 3.578125 -3.039062 3.71875 -2.640625 3.71875 -2.109375 C 3.71875 -1.921875 3.710938 -1.773438 3.703125 -1.671875 Z M 2.828125 -2.21875 C 2.828125 -2.5 2.765625 -2.703125 2.640625 -2.828125 C 2.515625 -2.960938 2.335938 -3.03125 2.109375 -3.03125 C 1.640625 -3.03125 1.363281 -2.757812 1.28125 -2.21875 Z M 2.828125 -2.21875 "/></g></g></g></svg>